<svg width="201" height="54" viewBox="0 0 201 54" fill="none" xmlns="http://www.w3.org/2000/svg">
<g clip-path="url(#clip0_20_3)">
<path d="M18 18H0V36L18 54V36H36L18 18H36V0H0L18 18Z" fill="black"/>
<path d="M63.3701 41.8904H69.3801V28.9404H83.7001V23.9004H69.3801V15.7704H84.7701V10.6104H63.3701V41.8904Z" fill="black"/>
<path d="M98.1699 19.5295C96.7099 19.5295 95.5499 19.8595 94.6799 20.5195C93.8099 21.1795 93.1799 22.1595 92.7699 23.4595H92.7099V19.7195H87.1699V41.8895H92.9199V29.6095C92.9199 28.4595 93.1099 27.5095 93.4999 26.7395C93.8899 25.9795 94.4099 25.4095 95.0899 25.0295C95.7699 24.6495 96.5199 24.4595 97.3599 24.4595C97.8899 24.4595 98.3999 24.4695 98.8899 24.4995C99.3799 24.5295 99.7299 24.5595 99.9399 24.5795V19.5995C99.7199 19.5895 99.4599 19.5695 99.1599 19.5495C98.8699 19.5295 98.5399 19.5195 98.1699 19.5195V19.5295Z" fill="black"/>
<path d="M117.48 22.7898H117.42C116.97 22.0098 116.41 21.3598 115.74 20.8398C115.07 20.3198 114.32 19.9298 113.48 19.6598C112.65 19.3898 111.75 19.2598 110.78 19.2598C108.89 19.2598 107.22 19.7498 105.78 20.7198C104.34 21.6898 103.21 23.0398 102.41 24.7698C101.61 26.4998 101.2 28.4998 101.2 30.7798C101.2 33.0598 101.6 35.1098 102.4 36.8498C103.2 38.5898 104.32 39.9398 105.76 40.8998C107.2 41.8598 108.89 42.3498 110.82 42.3498C111.79 42.3498 112.69 42.2098 113.52 41.9198C114.35 41.6298 115.1 41.2098 115.77 40.6598C116.44 40.1098 116.98 39.4098 117.42 38.5698H117.5V41.8898H123.11V19.7198H117.48V22.7898ZM117.03 34.3998C116.57 35.4198 115.94 36.2098 115.12 36.7698C114.3 37.3298 113.34 37.6098 112.23 37.6098C111.19 37.6098 110.28 37.3398 109.5 36.8098C108.72 36.2798 108.11 35.4998 107.67 34.4898C107.24 33.4798 107.02 32.2398 107.02 30.7798C107.02 29.3198 107.24 28.0698 107.67 27.0598C108.1 26.0498 108.71 25.2798 109.5 24.7498C110.29 24.2198 111.19 23.9498 112.23 23.9498C113.34 23.9498 114.3 24.2298 115.12 24.7898C115.94 25.3498 116.58 26.1398 117.03 27.1598C117.49 28.1798 117.71 29.3898 117.71 30.7698C117.71 32.1498 117.48 33.3598 117.03 34.3798V34.3998Z" fill="black"/>
<path d="M156.76 20.1903C155.64 19.5803 154.38 19.2803 152.98 19.2803C151.75 19.2803 150.62 19.5003 149.6 19.9303C148.58 20.3603 147.71 20.9803 147 21.7903C146.54 22.3103 146.18 22.8903 145.9 23.5203C145.52 22.3903 144.86 21.4603 143.91 20.7303C142.66 19.7603 141.19 19.2803 139.5 19.2803C138.46 19.2803 137.48 19.4703 136.54 19.8603C135.6 20.2403 134.78 20.8403 134.07 21.6303C133.56 22.2003 133.14 22.8803 132.8 23.6603V19.7203H127.26V41.8903H133.01V28.7203C133.01 27.7103 133.2 26.8603 133.58 26.1703C133.96 25.4803 134.47 24.9503 135.1 24.6003C135.74 24.2403 136.43 24.0603 137.19 24.0603C138.34 24.0603 139.27 24.4103 139.98 25.1203C140.69 25.8303 141.05 26.7803 141.05 27.9603V41.8803H146.61V28.4003C146.61 27.5503 146.78 26.7903 147.11 26.1303C147.44 25.4703 147.92 24.9603 148.53 24.6003C149.14 24.2403 149.87 24.0503 150.72 24.0503C151.8 24.0503 152.72 24.3803 153.49 25.0503C154.26 25.7103 154.64 26.7503 154.64 28.1703V41.8803H160.37V27.2203C160.37 25.5003 160.04 24.0503 159.39 22.8603C158.74 21.6803 157.85 20.7803 156.73 20.1703L156.76 20.1903Z" fill="black"/>
<path d="M182.08 22.4297C181.14 21.4097 180 20.6197 178.69 20.0597C177.37 19.4997 175.9 19.2197 174.28 19.2197C172.18 19.2197 170.32 19.7197 168.71 20.7097C167.09 21.6997 165.83 23.0797 164.91 24.8297C163.99 26.5797 163.53 28.5797 163.53 30.8297C163.53 33.0797 163.98 35.0597 164.87 36.7997C165.77 38.5397 167.04 39.9097 168.68 40.8997C170.32 41.8897 172.26 42.3897 174.49 42.3897C176.25 42.3897 177.86 42.0697 179.32 41.4397C180.78 40.8097 181.98 39.9397 182.94 38.8297C183.9 37.7197 184.52 36.4297 184.8 34.9797H179.49C179.29 35.5697 178.98 36.0897 178.54 36.5397C178.1 36.9897 177.56 37.3497 176.9 37.5997C176.24 37.8497 175.49 37.9797 174.65 37.9797C173.47 37.9797 172.48 37.7297 171.66 37.2197C170.84 36.7197 170.21 36.0097 169.78 35.0997C169.39 34.2797 169.18 33.3297 169.14 32.2697H185.02V30.7197C185.02 29.0297 184.76 27.4797 184.25 26.0697C183.74 24.6597 183.01 23.4497 182.07 22.4297H182.08ZM169.19 28.4797C169.28 27.6997 169.47 26.9897 169.78 26.3697C170.21 25.5097 170.82 24.8397 171.61 24.3697C172.4 23.8997 173.33 23.6697 174.39 23.6697C175.45 23.6697 176.42 23.8997 177.2 24.3697C177.98 24.8397 178.59 25.4997 179.02 26.3697C179.33 26.9897 179.52 27.6997 179.61 28.4797H169.2H169.19Z" fill="black"/>
<path d="M200.09 19.5603C199.8 19.5403 199.47 19.5303 199.1 19.5303C197.64 19.5303 196.48 19.8603 195.61 20.5203C194.74 21.1803 194.11 22.1603 193.7 23.4603H193.64V19.7203H188.1V41.8903H193.85V29.6103C193.85 28.4603 194.04 27.5103 194.43 26.7403C194.81 25.9803 195.34 25.4103 196.01 25.0303C196.68 24.6503 197.44 24.4603 198.28 24.4603C198.81 24.4603 199.32 24.4703 199.81 24.5003C200.3 24.5303 200.65 24.5603 200.86 24.5803V19.6003C200.64 19.5903 200.38 19.5703 200.08 19.5503L200.09 19.5603Z" fill="black"/>
</g>
<defs>
<clipPath id="clip0_20_3">
<rect width="200.87" height="54" fill="white"/>
</clipPath>
</defs>
</svg>
