<?xml version="1.0" encoding="UTF-8"?>
<svg version="1.1" xmlns="http://www.w3.org/2000/svg" width="1920" height="325">
<path d="M0 0 C45.54 0 91.08 0 138 0 C138 36.63 138 73.26 138 111 C138.66 111 139.32 111 140 111 C140 109.35 140 107.7 140 106 C140.99 106 141.98 106 143 106 C143 104.35 143 102.7 143 101 C143.66 101 144.32 101 145 101 C145 99.35 145 97.7 145 96 C145.99 96 146.98 96 148 96 C148 94.68 148 93.36 148 92 C148.66 92 149.32 92 150 92 C150 89.36 150 86.72 150 84 C150.66 84 151.32 84 152 84 C152 82.68 152 81.36 152 80 C152.99 80 153.98 80 155 80 C155 78.35 155 76.7 155 75 C155.66 75 156.32 75 157 75 C157 73.35 157 71.7 157 70 C157.99 70 158.98 70 160 70 C160 68.35 160 66.7 160 65 C160.66 65 161.32 65 162 65 C162 63.35 162 61.7 162 60 C162.66 60 163.32 60 164 60 C164 58.68 164 57.36 164 56 C164.99 56 165.98 56 167 56 C167 54.35 167 52.7 167 51 C167.66 51 168.32 51 169 51 C169 49.35 169 47.7 169 46 C169.99 46 170.98 46 172 46 C172 44.35 172 42.7 172 41 C172.66 41 173.32 41 174 41 C174 39.35 174 37.7 174 36 C174.66 36 175.32 36 176 36 C176 34.68 176 33.36 176 32 C176.99 32 177.98 32 179 32 C179 30.35 179 28.7 179 27 C179.66 27 180.32 27 181 27 C181 25.35 181 23.7 181 22 C181.99 22 182.98 22 184 22 C184 20.35 184 18.7 184 17 C184.66 17 185.32 17 186 17 C186 15.35 186 13.7 186 12 C186.66 12 187.32 12 188 12 C188 10.68 188 9.36 188 8 C188.99 8 189.98 8 191 8 C191 6.35 191 4.7 191 3 C191.66 3 192.32 3 193 3 C193 2.01 193 1.02 193 0 C228.64 0 264.28 0 301 0 C301 35.64 301 71.28 301 108 C301.99 108 302.98 108 304 108 C304 106.68 304 105.36 304 104 C304.66 104 305.32 104 306 104 C306 102.35 306 100.7 306 99 C306.66 99 307.32 99 308 99 C308 97.35 308 95.7 308 94 C308.99 94 309.98 94 311 94 C311 92.35 311 90.7 311 89 C311.66 89 312.32 89 313 89 C313.33 87.35 313.66 85.7 314 84 C314.66 84 315.32 84 316 84 C316 82.68 316 81.36 316 80 C316.66 80 317.32 80 318 80 C318 78.35 318 76.7 318 75 C318.66 75 319.32 75 320 75 C320.33 74.01 320.66 73.02 321 72 C321.66 72 322.32 72 323 72 C323 70.68 323 69.36 323 68 C323.66 68 324.32 68 325 68 C325 66.35 325 64.7 325 63 C325.99 63 326.98 63 328 63 C328 61.35 328 59.7 328 58 C328.66 58 329.32 58 330 58 C330 56.35 330 54.7 330 53 C330.66 53 331.32 53 332 53 C332.33 51.35 332.66 49.7 333 48 C333.66 48 334.32 48 335 48 C335 46.68 335 45.36 335 44 C335.66 44 336.32 44 337 44 C337 42.35 337 40.7 337 39 C337.99 39 338.98 39 340 39 C340 37.35 340 35.7 340 34 C340.66 34 341.32 34 342 34 C342 32.35 342 30.7 342 29 C342.66 29 343.32 29 344 29 C344.33 27.35 344.66 25.7 345 24 C345.66 24 346.32 24 347 24 C347 22.68 347 21.36 347 20 C347.66 20 348.32 20 349 20 C349 18.35 349 16.7 349 15 C349.99 15 350.98 15 352 15 C352 13.35 352 11.7 352 10 C352.66 10 353.32 10 354 10 C354 9.34 354 8.68 354 8 C354.66 8 355.32 8 356 8 C356 6.35 356 4.7 356 3 C356.99 3 357.98 3 359 3 C359 2.01 359 1.02 359 0 C410.48 0 461.96 0 515 0 C515 1.65 515 3.3 515 5 C514.01 5 513.02 5 512 5 C512 6.65 512 8.3 512 10 C511.34 10 510.68 10 510 10 C510 10.66 510 11.32 510 12 C509.34 12 508.68 12 508 12 C508 13.65 508 15.3 508 17 C507.01 17 506.02 17 505 17 C505 18.65 505 20.3 505 22 C504.34 22 503.68 22 503 22 C503 23.65 503 25.3 503 27 C502.01 27 501.02 27 500 27 C500 28.65 500 30.3 500 32 C499.34 32 498.68 32 498 32 C498 33.32 498 34.64 498 36 C497.34 36 496.68 36 496 36 C496 37.65 496 39.3 496 41 C495.01 41 494.02 41 493 41 C493 42.65 493 44.3 493 46 C492.34 46 491.68 46 491 46 C491 47.65 491 49.3 491 51 C490.01 51 489.02 51 488 51 C488 52.65 488 54.3 488 56 C487.34 56 486.68 56 486 56 C486 57.32 486 58.64 486 60 C485.34 60 484.68 60 484 60 C484 61.65 484 63.3 484 65 C483.01 65 482.02 65 481 65 C481 66.65 481 68.3 481 70 C480.34 70 479.68 70 479 70 C479 71.65 479 73.3 479 75 C478.01 75 477.02 75 476 75 C476 76.65 476 78.3 476 80 C475.34 80 474.68 80 474 80 C474 81.32 474 82.64 474 84 C473.34 84 472.68 84 472 84 C472 85.65 472 87.3 472 89 C471.01 89 470.02 89 469 89 C469 90.65 469 92.3 469 94 C468.34 94 467.68 94 467 94 C467 95.65 467 97.3 467 99 C466.01 99 465.02 99 464 99 C464 100.65 464 102.3 464 104 C463.34 104 462.68 104 462 104 C462 105.32 462 106.64 462 108 C461.34 108 460.68 108 460 108 C460 109.65 460 111.3 460 113 C459.01 113 458.02 113 457 113 C457 113.99 457 114.98 457 116 C456.34 116 455.68 116 455 116 C455 117.32 455 118.64 455 120 C454.01 120 453.02 120 452 120 C452 121.65 452 123.3 452 125 C451.34 125 450.68 125 450 125 C450 126.65 450 128.3 450 130 C449.34 130 448.68 130 448 130 C448 131.65 448 133.3 448 135 C447.01 135 446.02 135 445 135 C445 136.65 445 138.3 445 140 C444.34 140 443.68 140 443 140 C443 141.32 443 142.64 443 144 C442.01 144 441.02 144 440 144 C440 145.65 440 147.3 440 149 C439.34 149 438.68 149 438 149 C438 150.65 438 152.3 438 154 C437.34 154 436.68 154 436 154 C436 155.65 436 157.3 436 159 C435.01 159 434.02 159 433 159 C433 160.65 433 162.3 433 164 C432.34 164 431.68 164 431 164 C431 165.32 431 166.64 431 168 C430.01 168 429.02 168 428 168 C428 169.65 428 171.3 428 173 C427.34 173 426.68 173 426 173 C426 174.65 426 176.3 426 178 C425.34 178 424.68 178 424 178 C423.67 179.65 423.34 181.3 423 183 C422.34 183 421.68 183 421 183 C421 184.65 421 186.3 421 188 C420.34 188 419.68 188 419 188 C419 189.32 419 190.64 419 192 C418.01 192 417.02 192 416 192 C416 193.65 416 195.3 416 197 C415.34 197 414.68 197 414 197 C414 198.65 414 200.3 414 202 C413.34 202 412.68 202 412 202 C411.67 203.65 411.34 205.3 411 207 C410.34 207 409.68 207 409 207 C409 208.65 409 210.3 409 212 C408.34 212 407.68 212 407 212 C407 213.32 407 214.64 407 216 C406.01 216 405.02 216 404 216 C404 216.99 404 217.98 404 219 C403.34 219 402.68 219 402 219 C402 220.65 402 222.3 402 224 C401.34 224 400.68 224 400 224 C400 225.32 400 226.64 400 228 C399.01 228 398.02 228 397 228 C397 229.65 397 231.3 397 233 C396.34 233 395.68 233 395 233 C395 234.65 395 236.3 395 238 C394.01 238 393.02 238 392 238 C392 239.65 392 241.3 392 243 C391.34 243 390.68 243 390 243 C390 244.65 390 246.3 390 248 C389.34 248 388.68 248 388 248 C388 249.32 388 250.64 388 252 C387.01 252 386.02 252 385 252 C385 253.65 385 255.3 385 257 C384.34 257 383.68 257 383 257 C383 258.65 383 260.3 383 262 C382.01 262 381.02 262 380 262 C380 263.65 380 265.3 380 267 C379.34 267 378.68 267 378 267 C378 268.65 378 270.3 378 272 C377.34 272 376.68 272 376 272 C376 273.32 376 274.64 376 276 C375.01 276 374.02 276 373 276 C373 277.65 373 279.3 373 281 C372.34 281 371.68 281 371 281 C371 282.65 371 284.3 371 286 C370.01 286 369.02 286 368 286 C368 287.65 368 289.3 368 291 C367.34 291 366.68 291 366 291 C366 292.65 366 294.3 366 296 C365.34 296 364.68 296 364 296 C364 297.32 364 298.64 364 300 C363.01 300 362.02 300 361 300 C361 301.65 361 303.3 361 305 C360.34 305 359.68 305 359 305 C359 306.65 359 308.3 359 310 C358.01 310 357.02 310 356 310 C356 311.65 356 313.3 356 315 C355.34 315 354.68 315 354 315 C354 316.65 354 318.3 354 320 C351.1892721 321.40536395 348.86836172 321.12273099 345.72323608 321.12025452 C344.74674557 321.12153615 344.74674557 321.12153615 343.75052798 321.12284368 C341.55940642 321.12449667 339.36836066 321.11898008 337.17724609 321.11352539 C335.61046856 321.11324345 334.0436909 321.11340138 332.47691345 321.1139679 C328.21475962 321.11425562 323.95263375 321.10836297 319.69048643 321.10139394 C315.23951069 321.0951562 310.78853437 321.09455627 306.33755493 321.09336853 C297.90507352 321.09025646 289.47260502 321.08204473 281.0401293 321.07201904 C271.44171834 321.06085406 261.84330677 321.05534648 252.24489093 321.05032361 C232.49658673 321.03986203 212.74829418 321.02226497 193 321 C193 319.68 193 318.36 193 317 C193.99 317 194.98 317 196 317 C196 315.35 196 313.7 196 312 C196.66 312 197.32 312 198 312 C198 310.68 198 309.36 198 308 C198.66 308 199.32 308 200 308 C200 306.35 200 304.7 200 303 C200.99 303 201.98 303 203 303 C203 301.35 203 299.7 203 298 C203.66 298 204.32 298 205 298 C205 296.35 205 294.7 205 293 C205.99 293 206.98 293 208 293 C208 291.35 208 289.7 208 288 C208.66 288 209.32 288 210 288 C210 286.68 210 285.36 210 284 C210.66 284 211.32 284 212 284 C212 282.35 212 280.7 212 279 C212.99 279 213.98 279 215 279 C215 278.01 215 277.02 215 276 C215.66 276 216.32 276 217 276 C217 274.68 217 273.36 217 272 C217.99 272 218.98 272 220 272 C220 270.35 220 268.7 220 267 C220.66 267 221.32 267 222 267 C222 265.35 222 263.7 222 262 C222.66 262 223.32 262 224 262 C224 260.35 224 258.7 224 257 C224.99 257 225.98 257 227 257 C227 255.35 227 253.7 227 252 C227.66 252 228.32 252 229 252 C229 250.68 229 249.36 229 248 C229.99 248 230.98 248 232 248 C232 246.35 232 244.7 232 243 C232.66 243 233.32 243 234 243 C234 241.35 234 239.7 234 238 C234.66 238 235.32 238 236 238 C236.33 236.35 236.66 234.7 237 233 C237.66 233 238.32 233 239 233 C239 231.35 239 229.7 239 228 C239.66 228 240.32 228 241 228 C241 226.68 241 225.36 241 224 C241.99 224 242.98 224 244 224 C244 222.35 244 220.7 244 219 C244.66 219 245.32 219 246 219 C246 217.35 246 215.7 246 214 C246.66 214 247.32 214 248 214 C248.33 212.35 248.66 210.7 249 209 C249.66 209 250.32 209 251 209 C251 207.35 251 205.7 251 204 C250.01 204 249.02 204 248 204 C248 205.65 248 207.3 248 209 C247.34 209 246.68 209 246 209 C246 209.99 246 210.98 246 212 C245.34 212 244.68 212 244 212 C244 212.66 244 213.32 244 214 C243.01 214 242.02 214 241 214 C241 214.66 241 215.32 241 216 C240.34 216 239.68 216 239 216 C239 216.99 239 217.98 239 219 C238.01 219 237.02 219 236 219 C236 219.66 236 220.32 236 221 C235.34 221 234.68 221 234 221 C234 221.99 234 222.98 234 224 C233.34 224 232.68 224 232 224 C232 224.66 232 225.32 232 226 C231.01 226 230.02 226 229 226 C229 226.66 229 227.32 229 228 C228.34 228 227.68 228 227 228 C227 228.99 227 229.98 227 231 C226.01 231 225.02 231 224 231 C224 231.66 224 232.32 224 233 C223.34 233 222.68 233 222 233 C222 233.99 222 234.98 222 236 C220.35 236 218.7 236 217 236 C217 236.66 217 237.32 217 238 C216.34 238 215.68 238 215 238 C215 238.66 215 239.32 215 240 C214.01 240 213.02 240 212 240 C212 240.99 212 241.98 212 243 C211.34 243 210.68 243 210 243 C210 243.66 210 244.32 210 245 C209.34 245 208.68 245 208 245 C207.67 245.99 207.34 246.98 207 248 C205.68 248 204.36 248 203 248 C203 248.66 203 249.32 203 250 C202.01 250 201.02 250 200 250 C200 250.66 200 251.32 200 252 C199.34 252 198.68 252 198 252 C198 252.99 198 253.98 198 255 C196.35 255 194.7 255 193 255 C193 255.66 193 256.32 193 257 C192.34 257 191.68 257 191 257 C190.67 257.99 190.34 258.98 190 260 C188.68 260 187.36 260 186 260 C186 260.66 186 261.32 186 262 C185.34 262 184.68 262 184 262 C184 262.66 184 263.32 184 264 C182.35 264 180.7 264 179 264 C179 264.99 179 265.98 179 267 C178.01 267 177.02 267 176 267 C176 267.66 176 268.32 176 269 C174.68 269 173.36 269 172 269 C171.67 269.99 171.34 270.98 171 272 C169.68 272 168.36 272 167 272 C167 272.66 167 273.32 167 274 C166.01 274 165.02 274 164 274 C164 274.66 164 275.32 164 276 C162.68 276 161.36 276 160 276 C159.67 276.99 159.34 277.98 159 279 C157.68 279 156.36 279 155 279 C155 279.66 155 280.32 155 281 C153.35 281 151.7 281 150 281 C150 281.99 150 282.98 150 284 C148.35 284 146.7 284 145 284 C145 284.66 145 285.32 145 286 C143.35 286 141.7 286 140 286 C140 286.66 140 287.32 140 288 C138.68 288 137.36 288 136 288 C135.67 288.99 135.34 289.98 135 291 C132.69 291 130.38 291 128 291 C128 291.66 128 292.32 128 293 C126.68 293 125.36 293 124 293 C123.67 293.99 123.34 294.98 123 296 C120.69 296 118.38 296 116 296 C116 296.66 116 297.32 116 298 C113.69 298 111.38 298 109 298 C109 298.66 109 299.32 109 300 C106.69 300 104.38 300 102 300 C102 300.99 102 301.98 102 303 C99.69 303 97.38 303 95 303 C95 303.66 95 304.32 95 305 C92.69 305 90.38 305 88 305 C87.67 305.99 87.34 306.98 87 308 C84.03 308 81.06 308 78 308 C78 308.66 78 309.32 78 310 C74.7 310 71.4 310 68 310 C68 310.66 68 311.32 68 312 C65.03 312 62.06 312 59 312 C59 312.99 59 313.98 59 315 C55.04 315 51.08 315 47 315 C47 315.66 47 316.32 47 317 C42.05 317 37.1 317 32 317 C32 317.99 32 318.98 32 320 C29.10437541 320.17123018 26.20859229 320.33702599 23.3125 320.5 C22.51521484 320.54769531 21.71792969 320.59539062 20.89648438 320.64453125 C13.89710994 321.03184841 7.04509888 321 0 321 C0 277.11 0 233.22 0 188 C3.63 188 7.26 188 11 188 C11 187.01 11 186.02 11 185 C14.96 185 18.92 185 23 185 C23 184.34 23 183.68 23 183 C26.96 183 30.92 183 35 183 C35 182.01 35 181.02 35 180 C37.97 180 40.94 180 44 180 C44 179.34 44 178.68 44 178 C46.64 178 49.28 178 52 178 C52 177.34 52 176.68 52 176 C54.31 176 56.62 176 59 176 C59 175.01 59 174.02 59 173 C60.65 173 62.3 173 64 173 C64 172.34 64 171.68 64 171 C66.31 171 68.62 171 71 171 C71 170.01 71 169.02 71 168 C72.65 168 74.3 168 76 168 C76 167.34 76 166.68 76 166 C77.32 166 78.64 166 80 166 C80 165.34 80 164.68 80 164 C81.65 164 83.3 164 85 164 C85 163.01 85 162.02 85 161 C86.65 161 88.3 161 90 161 C90 160.34 90 159.68 90 159 C90.66 159 91.32 159 92 159 C92.33 158.01 92.66 157.02 93 156 C94.32 156 95.64 156 97 156 C97 155.34 97 154.68 97 154 C97.99 154 98.98 154 100 154 C100 153.34 100 152.68 100 152 C101.32 152 102.64 152 104 152 C104 151.01 104 150.02 104 149 C104.99 149 105.98 149 107 149 C107 148.34 107 147.68 107 147 C107.66 147 108.32 147 109 147 C109.33 146.01 109.66 145.02 110 144 C110.66 144 111.32 144 112 144 C112 143.34 112 142.68 112 142 C112.66 142 113.32 142 114 142 C114 141.34 114 140.68 114 140 C76.38 140 38.76 140 0 140 C0 93.8 0 47.6 0 0 Z M255 199 C254.01 199.495 254.01 199.495 253 200 C253 200.66 253 201.32 253 202 C253.99 202 254.98 202 256 202 C255.67 201.01 255.34 200.02 255 199 Z M251 202 C251 202.66 251 203.32 251 204 C251.66 204 252.32 204 253 204 C253 203.34 253 202.68 253 202 C252.34 202 251.68 202 251 202 Z " fill="#136DF4" transform="translate(0,0)"/>
<path d="M0 0 C18.15 0 36.3 0 55 0 C55 2.31 55 4.62 55 7 C55.66 7 56.32 7 57 7 C57 10.3 57 13.6 57 17 C57.99 17 58.98 17 60 17 C60 19.31 60 21.62 60 24 C60.66 24 61.32 24 62 24 C62 27.3 62 30.6 62 34 C62.99 34 63.98 34 65 34 C65 36.97 65 39.94 65 43 C65.66 43 66.32 43 67 43 C67 45.31 67 47.62 67 50 C67.66 50 68.32 50 69 50 C69 53.3 69 56.6 69 60 C69.99 60 70.98 60 72 60 C72 62.31 72 64.62 72 67 C72.66 67 73.32 67 74 67 C74 70.3 74 73.6 74 77 C74.99 77 75.98 77 77 77 C77 79.97 77 82.94 77 86 C77.66 86 78.32 86 79 86 C79 88.64 79 91.28 79 94 C79.66 94 80.32 94 81 94 C81 96.97 81 99.94 81 103 C81.99 103 82.98 103 84 103 C84 106.3 84 109.6 84 113 C84.66 113 85.32 113 86 113 C86 115.31 86 117.62 86 120 C86.99 120 87.98 120 89 120 C89 123.3 89 126.6 89 130 C89.66 130 90.32 130 91 130 C91 132.97 91 135.94 91 139 C91.66 139 92.32 139 93 139 C93 141.31 93 143.62 93 146 C93.99 146.33 94.98 146.66 96 147 C96 149.97 96 152.94 96 156 C96.66 156 97.32 156 98 156 C98 154.35 98 152.7 98 151 C98.99 151 99.98 151 101 151 C101 148.03 101 145.06 101 142 C101.66 142 102.32 142 103 142 C103 139.36 103 136.72 103 134 C103.66 134 104.32 134 105 134 C105 131.69 105 129.38 105 127 C105.99 127 106.98 127 108 127 C108 124.03 108 121.06 108 118 C108.66 118 109.32 118 110 118 C110 115.36 110 112.72 110 110 C110.99 110 111.98 110 113 110 C113 107.03 113 104.06 113 101 C113.66 101 114.32 101 115 101 C115 98.69 115 96.38 115 94 C115.66 94 116.32 94 117 94 C117 90.7 117 87.4 117 84 C117.99 84 118.98 84 120 84 C120 81.69 120 79.38 120 77 C120.66 77 121.32 77 122 77 C122 74.69 122 72.38 122 70 C122.99 70 123.98 70 125 70 C125 66.7 125 63.4 125 60 C125.66 60 126.32 60 127 60 C127 57.69 127 55.38 127 53 C127.66 53 128.32 53 129 53 C129 50.03 129 47.06 129 44 C129.99 43.67 130.98 43.34 132 43 C132 40.69 132 38.38 132 36 C132.66 36 133.32 36 134 36 C134 33.03 134 30.06 134 27 C134.99 26.67 135.98 26.34 137 26 C137 23.69 137 21.38 137 19 C137.66 19 138.32 19 139 19 C139 16.03 139 13.06 139 10 C139.66 10 140.32 10 141 10 C141 7.69 141 5.38 141 3 C141.99 2.67 142.98 2.34 144 2 C144 1.34 144 0.68 144 0 C158.85 0 173.7 0 189 0 C189 0.66 189 1.32 189 2 C189.99 2.33 190.98 2.66 192 3 C192 5.31 192 7.62 192 10 C192.66 10 193.32 10 194 10 C194 12.97 194 15.94 194 19 C194.99 19 195.98 19 197 19 C197 21.31 197 23.62 197 26 C197.66 26 198.32 26 199 26 C199 28.64 199 31.28 199 34 C199.66 34 200.32 34 201 34 C201 36.31 201 38.62 201 41 C201.99 41 202.98 41 204 41 C204 43.31 204 45.62 204 48 C204.66 48 205.32 48 206 48 C206 50.31 206 52.62 206 55 C206.99 55.33 207.98 55.66 209 56 C209 57.98 209 59.96 209 62 C209.66 62 210.32 62 211 62 C211 64.64 211 67.28 211 70 C211.66 70 212.32 70 213 70 C213 72.31 213 74.62 213 77 C213.99 77 214.98 77 216 77 C216 79.31 216 81.62 216 84 C216.66 84 217.32 84 218 84 C218 87.3 218 90.6 218 94 C218.99 94 219.98 94 221 94 C221 96.31 221 98.62 221 101 C221.66 101 222.32 101 223 101 C223 103.31 223 105.62 223 108 C223.66 108 224.32 108 225 108 C225 110.31 225 112.62 225 115 C225.99 115 226.98 115 228 115 C228 117.31 228 119.62 228 122 C228.66 122 229.32 122 230 122 C230 124.64 230 127.28 230 130 C230.99 130 231.98 130 233 130 C233 132.31 233 134.62 233 137 C233.66 137 234.32 137 235 137 C235 139.31 235 141.62 235 144 C235.66 144 236.32 144 237 144 C237 146.31 237 148.62 237 151 C237.99 151 238.98 151 240 151 C240 150.34 240 149.68 240 149 C240.66 149 241.32 149 242 149 C242 145.7 242 142.4 242 139 C242.99 139 243.98 139 245 139 C245 136.03 245 133.06 245 130 C245.66 130 246.32 130 247 130 C247 127.36 247 124.72 247 122 C247.66 122 248.32 122 249 122 C249 119.03 249 116.06 249 113 C249.99 113 250.98 113 252 113 C252 109.7 252 106.4 252 103 C252.66 103 253.32 103 254 103 C254 100.69 254 98.38 254 96 C254.99 96 255.98 96 257 96 C257 92.7 257 89.4 257 86 C257.66 86 258.32 86 259 86 C259 83.03 259 80.06 259 77 C259.66 77 260.32 77 261 77 C261 74.03 261 71.06 261 68 C262.485 67.505 262.485 67.505 264 67 C264 64.69 264 62.38 264 60 C264.66 60 265.32 60 266 60 C266 56.7 266 53.4 266 50 C266.99 50 267.98 50 269 50 C269 47.03 269 44.06 269 41 C269.66 41 270.32 41 271 41 C271 37.7 271 34.4 271 31 C271.66 31 272.32 31 273 31 C273 28.69 273 26.38 273 24 C273.99 24 274.98 24 276 24 C276 20.7 276 17.4 276 14 C276.66 14 277.32 14 278 14 C278 11.03 278 8.06 278 5 C278.99 5 279.98 5 281 5 C281 3.35 281 1.7 281 0 C297.5 0 314 0 331 0 C331 2.31 331 4.62 331 7 C330.34 7 329.68 7 329 7 C329 9.31 329 11.62 329 14 C328.01 14 327.02 14 326 14 C326 17.3 326 20.6 326 24 C325.34 24 324.68 24 324 24 C324 26.31 324 28.62 324 31 C323.01 31 322.02 31 321 31 C321 34.3 321 37.6 321 41 C320.34 41 319.68 41 319 41 C319 43.31 319 45.62 319 48 C318.34 48 317.68 48 317 48 C317 50.97 317 53.94 317 57 C315.515 57.495 315.515 57.495 314 58 C314 60.31 314 62.62 314 65 C313.34 65 312.68 65 312 65 C312 67.97 312 70.94 312 74 C311.01 74 310.02 74 309 74 C309 76.64 309 79.28 309 82 C308.34 82 307.68 82 307 82 C307 84.97 307 87.94 307 91 C306.34 91 305.68 91 305 91 C305 93.31 305 95.62 305 98 C304.01 98 303.02 98 302 98 C302 101.3 302 104.6 302 108 C301.34 108 300.68 108 300 108 C300 110.31 300 112.62 300 115 C299.01 115 298.02 115 297 115 C297 118.3 297 121.6 297 125 C296.34 125 295.68 125 295 125 C295 127.31 295 129.62 295 132 C294.34 132 293.68 132 293 132 C293 134.97 293 137.94 293 141 C292.01 141.33 291.02 141.66 290 142 C290 144.31 290 146.62 290 149 C289.34 149 288.68 149 288 149 C288 151.97 288 154.94 288 158 C287.01 158 286.02 158 285 158 C285 160.64 285 163.28 285 166 C284.34 166 283.68 166 283 166 C283 168.97 283 171.94 283 175 C282.34 175 281.68 175 281 175 C281 177.31 281 179.62 281 182 C280.01 182 279.02 182 278 182 C278 185.3 278 188.6 278 192 C277.34 192 276.68 192 276 192 C276 194.31 276 196.62 276 199 C275.01 199 274.02 199 273 199 C273 202.3 273 205.6 273 209 C272.34 209 271.68 209 271 209 C271 211.31 271 213.62 271 216 C270.34 216 269.68 216 269 216 C269 218.31 269 220.62 269 223 C268.01 223 267.02 223 266 223 C266 226.3 266 229.6 266 233 C265.34 233 264.68 233 264 233 C264 235.31 264 237.62 264 240 C248.16 240 232.32 240 216 240 C216 239.34 216 238.68 216 238 C215.01 237.67 214.02 237.34 213 237 C213 234.69 213 232.38 213 230 C212.34 230 211.68 230 211 230 C211 227.69 211 225.38 211 223 C210.34 223 209.68 223 209 223 C209 220.69 209 218.38 209 216 C208.01 216 207.02 216 206 216 C206 213.69 206 211.38 206 209 C205.34 209 204.68 209 204 209 C204 206.69 204 204.38 204 202 C203.01 201.67 202.02 201.34 201 201 C201 198.69 201 196.38 201 194 C200.34 194 199.68 194 199 194 C199 191.69 199 189.38 199 187 C198.34 187 197.68 187 197 187 C197 184.69 197 182.38 197 180 C196.01 180 195.02 180 194 180 C194 177.69 194 175.38 194 173 C193.34 173 192.68 173 192 173 C192 170.69 192 168.38 192 166 C191.01 165.67 190.02 165.34 189 165 C189 162.69 189 160.38 189 158 C188.34 158 187.68 158 187 158 C187 155.69 187 153.38 187 151 C186.34 151 185.68 151 185 151 C185 148.69 185 146.38 185 144 C184.01 144 183.02 144 182 144 C182 141.69 182 139.38 182 137 C181.34 137 180.68 137 180 137 C180 134.69 180 132.38 180 130 C179.01 129.67 178.02 129.34 177 129 C177 126.69 177 124.38 177 122 C176.34 122 175.68 122 175 122 C175 119.69 175 117.38 175 115 C174.34 115 173.68 115 173 115 C173 112.69 173 110.38 173 108 C172.01 108 171.02 108 170 108 C170 105.69 170 103.38 170 101 C169.34 101 168.68 101 168 101 C168 99.35 168 97.7 168 96 C167.01 96 166.02 96 165 96 C165 93.69 165 91.38 165 89 C164.34 89 163.68 89 163 89 C163 91.97 163 94.94 163 98 C162.34 98 161.68 98 161 98 C161 100.31 161 102.62 161 105 C160.01 105.33 159.02 105.66 158 106 C158 108.31 158 110.62 158 113 C157.34 113 156.68 113 156 113 C156 115.31 156 117.62 156 120 C155.01 120 154.02 120 153 120 C153 123.3 153 126.6 153 130 C152.34 130 151.68 130 151 130 C151 132.31 151 134.62 151 137 C150.34 137 149.68 137 149 137 C149 139.31 149 141.62 149 144 C148.01 144 147.02 144 146 144 C146 146.31 146 148.62 146 151 C145.34 151 144.68 151 144 151 C144 154.3 144 157.6 144 161 C143.01 161 142.02 161 141 161 C141 163.31 141 165.62 141 168 C140.34 168 139.68 168 139 168 C139 170.31 139 172.62 139 175 C138.34 175 137.68 175 137 175 C137 177.31 137 179.62 137 182 C136.01 182 135.02 182 134 182 C134 184.64 134 187.28 134 190 C133.34 190 132.68 190 132 190 C132 192.97 132 195.94 132 199 C131.01 199 130.02 199 129 199 C129 201.31 129 203.62 129 206 C128.34 206 127.68 206 127 206 C127 208.64 127 211.28 127 214 C126.34 214 125.68 214 125 214 C125 216.31 125 218.62 125 221 C124.01 221 123.02 221 122 221 C122 223.97 122 226.94 122 230 C121.34 230 120.68 230 120 230 C120 232.31 120 234.62 120 237 C119.01 237.33 118.02 237.66 117 238 C117 238.66 117 239.32 117 240 C101.16 240 85.32 240 69 240 C69 238.35 69 236.7 69 235 C68.34 235 67.68 235 67 235 C67 232.03 67 229.06 67 226 C66.34 226 65.68 226 65 226 C65 223.36 65 220.72 65 218 C64.01 218 63.02 218 62 218 C62 215.69 62 213.38 62 211 C61.34 211 60.68 211 60 211 C60 208.03 60 205.06 60 202 C59.01 201.67 58.02 201.34 57 201 C57 198.69 57 196.38 57 194 C56.34 194 55.68 194 55 194 C55 191.03 55 188.06 55 185 C54.34 185 53.68 185 53 185 C53 182.69 53 180.38 53 178 C52.01 177.67 51.02 177.34 50 177 C50 174.69 50 172.38 50 170 C49.34 170 48.68 170 48 170 C48 167.03 48 164.06 48 161 C47.01 161 46.02 161 45 161 C45 158.69 45 156.38 45 154 C44.34 154 43.68 154 43 154 C43 150.7 43 147.4 43 144 C42.34 144 41.68 144 41 144 C41 141.69 41 139.38 41 137 C40.01 137 39.02 137 38 137 C38 134.69 38 132.38 38 130 C37.34 130 36.68 130 36 130 C36 126.7 36 123.4 36 120 C35.01 120 34.02 120 33 120 C33 117.69 33 115.38 33 113 C32.34 113 31.68 113 31 113 C31 109.7 31 106.4 31 103 C30.34 103 29.68 103 29 103 C29 100.69 29 98.38 29 96 C28.01 96 27.02 96 26 96 C26 93.69 26 91.38 26 89 C25.34 89 24.68 89 24 89 C24 85.7 24 82.4 24 79 C23.01 79 22.02 79 21 79 C21 76.69 21 74.38 21 72 C20.34 72 19.68 72 19 72 C19 68.7 19 65.4 19 62 C18.34 62 17.68 62 17 62 C17 59.69 17 57.38 17 55 C16.01 55 15.02 55 14 55 C14 52.69 14 50.38 14 48 C13.34 48 12.68 48 12 48 C12 44.7 12 41.4 12 38 C11.01 38 10.02 38 9 38 C9 35.69 9 33.38 9 31 C8.34 31 7.68 31 7 31 C7 28.03 7 25.06 7 22 C6.34 22 5.68 22 5 22 C5 19.36 5 16.72 5 14 C4.01 14 3.02 14 2 14 C2 11.69 2 9.38 2 7 C1.34 7 0.68 7 0 7 C0 4.69 0 2.38 0 0 Z " fill="#070707" transform="translate(575,46)"/>
<path d="M0 0 C17.49 0 34.98 0 53 0 C53 0.66 53 1.32 53 2 C53.99 2.33 54.98 2.66 56 3 C56 5.97 56 8.94 56 12 C56.66 12 57.32 12 58 12 C58 15.3 58 18.6 58 22 C58.66 22 59.32 22 60 22 C60 24.31 60 26.62 60 29 C60.99 29 61.98 29 63 29 C63 31.97 63 34.94 63 38 C63.66 38 64.32 38 65 38 C65 41.3 65 44.6 65 48 C65.99 48 66.98 48 68 48 C68 50.31 68 52.62 68 55 C68.66 55 69.32 55 70 55 C70 58.3 70 61.6 70 65 C70.66 65 71.32 65 72 65 C72 67.97 72 70.94 72 74 C72.99 74 73.98 74 75 74 C75 76.64 75 79.28 75 82 C75.66 82 76.32 82 77 82 C77 84.97 77 87.94 77 91 C77.99 91 78.98 91 80 91 C80 94.3 80 97.6 80 101 C80.66 101 81.32 101 82 101 C82 101.66 82 102.32 82 103 C82.66 103 83.32 103 84 103 C84 100.69 84 98.38 84 96 C84.99 96 85.98 96 87 96 C87 92.7 87 89.4 87 86 C87.66 86 88.32 86 89 86 C89 83.69 89 81.38 89 79 C89.99 79 90.98 79 92 79 C92 76.03 92 73.06 92 70 C92.66 70 93.32 70 94 70 C94 67.36 94 64.72 94 62 C94.66 62 95.32 62 96 62 C96 59.69 96 57.38 96 55 C96.99 55 97.98 55 99 55 C99 52.03 99 49.06 99 46 C99.66 46 100.32 46 101 46 C101 43.36 101 40.72 101 38 C101.99 38 102.98 38 104 38 C104 35.03 104 32.06 104 29 C104.66 29 105.32 29 106 29 C106 26.69 106 24.38 106 22 C106.66 22 107.32 22 108 22 C108 19.69 108 17.38 108 15 C108.99 14.67 109.98 14.34 111 14 C111 11.03 111 8.06 111 5 C111.66 5 112.32 5 113 5 C113 3.35 113 1.7 113 0 C128.84 0 144.68 0 161 0 C161 1.65 161 3.3 161 5 C161.99 5 162.98 5 164 5 C164 7.31 164 9.62 164 12 C164.66 12 165.32 12 166 12 C166 15.3 166 18.6 166 22 C166.66 22 167.32 22 168 22 C168 24.31 168 26.62 168 29 C168.99 29 169.98 29 171 29 C171 31.31 171 33.62 171 36 C171.66 36 172.32 36 173 36 C173 39.3 173 42.6 173 46 C173.99 46 174.98 46 176 46 C176 48.31 176 50.62 176 53 C176.66 53 177.32 53 178 53 C178 55.31 178 57.62 178 60 C178.66 60 179.32 60 180 60 C180 63.3 180 66.6 180 70 C180.99 70 181.98 70 183 70 C183 72.31 183 74.62 183 77 C183.66 77 184.32 77 185 77 C185 79.31 185 81.62 185 84 C185.99 84 186.98 84 188 84 C188 87.3 188 90.6 188 94 C188.66 94 189.32 94 190 94 C190 96.31 190 98.62 190 101 C190.66 101 191.32 101 192 101 C192.33 100.01 192.66 99.02 193 98 C193.66 98 194.32 98 195 98 C195 95.03 195 92.06 195 89 C195.66 89 196.32 89 197 89 C197 86.69 197 84.38 197 82 C197.99 82 198.98 82 200 82 C200 78.7 200 75.4 200 72 C200.66 72 201.32 72 202 72 C202 68.7 202 65.4 202 62 C202.66 62 203.32 62 204 62 C204 59.69 204 57.38 204 55 C204.99 55 205.98 55 207 55 C207 52.03 207 49.06 207 46 C207.66 46 208.32 46 209 46 C209 42.7 209 39.4 209 36 C209.99 36 210.98 36 212 36 C212 33.69 212 31.38 212 29 C212.66 29 213.32 29 214 29 C214 25.7 214 22.4 214 19 C214.66 19 215.32 19 216 19 C216 16.03 216 13.06 216 10 C216.99 10 217.98 10 219 10 C219 7.36 219 4.72 219 2 C219.66 2 220.32 2 221 2 C221 1.34 221 0.68 221 0 C236.51 0 252.02 0 268 0 C267.67 3.96 267.34 7.92 267 12 C266.01 12 265.02 12 264 12 C264 15.3 264 18.6 264 22 C263.34 22 262.68 22 262 22 C262 24.31 262 26.62 262 29 C261.34 29 260.68 29 260 29 C260 31.31 260 33.62 260 36 C259.01 36 258.02 36 257 36 C257 39.3 257 42.6 257 46 C256.34 46 255.68 46 255 46 C255 48.31 255 50.62 255 53 C254.01 53 253.02 53 252 53 C252 55.31 252 57.62 252 60 C251.34 60 250.68 60 250 60 C250 63.3 250 66.6 250 70 C249.34 70 248.68 70 248 70 C248 72.31 248 74.62 248 77 C247.01 77 246.02 77 245 77 C245 79.31 245 81.62 245 84 C244.34 84 243.68 84 243 84 C243 86.97 243 89.94 243 93 C242.01 93.33 241.02 93.66 240 94 C240 96.31 240 98.62 240 101 C239.34 101 238.68 101 238 101 C238 103.31 238 105.62 238 108 C237.34 108 236.68 108 236 108 C236 110.97 236 113.94 236 117 C235.01 117.33 234.02 117.66 233 118 C233 120.31 233 122.62 233 125 C232.34 125 231.68 125 231 125 C231 127.97 231 130.94 231 134 C230.01 134 229.02 134 228 134 C228 136.64 228 139.28 228 142 C227.34 142 226.68 142 226 142 C226 144.31 226 146.62 226 149 C225.34 149 224.68 149 224 149 C224 151.97 224 154.94 224 158 C223.01 158 222.02 158 221 158 C221 160.64 221 163.28 221 166 C220.34 166 219.68 166 219 166 C219 168.31 219 170.62 219 173 C218.01 173 217.02 173 216 173 C216 175.31 216 177.62 216 180 C200.16 180 184.32 180 168 180 C168 178.35 168 176.7 168 175 C167.34 175 166.68 175 166 175 C166 172.69 166 170.38 166 168 C165.34 168 164.68 168 164 168 C164 165.69 164 163.38 164 161 C163.01 161 162.02 161 161 161 C161 158.69 161 156.38 161 154 C160.34 154 159.68 154 159 154 C159 151.36 159 148.72 159 146 C158.01 146 157.02 146 156 146 C156 143.69 156 141.38 156 139 C155.34 139 154.68 139 154 139 C154 136.69 154 134.38 154 132 C153.34 132 152.68 132 152 132 C152 128.7 152 125.4 152 122 C151.01 122 150.02 122 149 122 C149 119.69 149 117.38 149 115 C148.34 115 147.68 115 147 115 C147 112.69 147 110.38 147 108 C146.01 108 145.02 108 144 108 C144 105.69 144 103.38 144 101 C143.34 101 142.68 101 142 101 C142 98.69 142 96.38 142 94 C141.34 94 140.68 94 140 94 C140 91.36 140 88.72 140 86 C139.01 86 138.02 86 137 86 C137 83.69 137 81.38 137 79 C136.34 79 135.68 79 135 79 C135 76.69 135 74.38 135 72 C134.01 72 133.02 72 132 72 C132 74.31 132 76.62 132 79 C131.34 79 130.68 79 130 79 C130 82.3 130 85.6 130 89 C129.34 89 128.68 89 128 89 C128 91.31 128 93.62 128 96 C127.01 96 126.02 96 125 96 C125 98.31 125 100.62 125 103 C124.34 103 123.68 103 123 103 C123 105.31 123 107.62 123 110 C122.01 110 121.02 110 120 110 C120 113.3 120 116.6 120 120 C119.34 120 118.68 120 118 120 C118 122.31 118 124.62 118 127 C117.34 127 116.68 127 116 127 C116 129.31 116 131.62 116 134 C115.01 134 114.02 134 113 134 C113 136.64 113 139.28 113 142 C112.34 142 111.68 142 111 142 C111 144.97 111 147.94 111 151 C110.01 151 109.02 151 108 151 C108 153.31 108 155.62 108 158 C107.34 158 106.68 158 106 158 C106 160.64 106 163.28 106 166 C105.34 166 104.68 166 104 166 C104 168.31 104 170.62 104 173 C103.01 173 102.02 173 101 173 C101 175.31 101 177.62 101 180 C85.16 180 69.32 180 53 180 C53 178.35 53 176.7 53 175 C52.34 175 51.68 175 51 175 C51 172.69 51 170.38 51 168 C50.01 168 49.02 168 48 168 C48 164.7 48 161.4 48 158 C47.34 158 46.68 158 46 158 C46 155.69 46 153.38 46 151 C45.34 151 44.68 151 44 151 C44 148.69 44 146.38 44 144 C43.01 144 42.02 144 41 144 C41 140.7 41 137.4 41 134 C40.34 134 39.68 134 39 134 C39 131.69 39 129.38 39 127 C38.01 127 37.02 127 36 127 C36 124.69 36 122.38 36 120 C35.34 120 34.68 120 34 120 C34 116.7 34 113.4 34 110 C33.34 110 32.68 110 32 110 C32 107.69 32 105.38 32 103 C31.01 103 30.02 103 29 103 C29 100.69 29 98.38 29 96 C28.34 96 27.68 96 27 96 C27 92.7 27 89.4 27 86 C26.01 86 25.02 86 24 86 C24 83.69 24 81.38 24 79 C23.34 79 22.68 79 22 79 C22 76.69 22 74.38 22 72 C21.34 72 20.68 72 20 72 C20 68.7 20 65.4 20 62 C19.01 62 18.02 62 17 62 C17 59.69 17 57.38 17 55 C16.34 55 15.68 55 15 55 C15 52.69 15 50.38 15 48 C14.01 48 13.02 48 12 48 C12 44.7 12 41.4 12 38 C11.34 38 10.68 38 10 38 C10 35.69 10 33.38 10 31 C9.34 31 8.68 31 8 31 C8 28.03 8 25.06 8 22 C7.01 22 6.02 22 5 22 C5 19.36 5 16.72 5 14 C4.34 14 3.68 14 3 14 C3 11.69 3 9.38 3 7 C2.01 7 1.02 7 0 7 C0 4.69 0 2.38 0 0 Z " fill="#070707" transform="translate(1652,106)"/>
<path d="M0 0 C15.84 0 31.68 0 48 0 C48.33 30.03 48.66 60.06 49 91 C49.66 91 50.32 91 51 91 C51 90.34 51 89.68 51 89 C51.66 89 52.32 89 53 89 C53 88.34 53 87.68 53 87 C53.99 87 54.98 87 56 87 C56 86.01 56 85.02 56 84 C57.32 84 58.64 84 60 84 C60 83.34 60 82.68 60 82 C61.65 82 63.3 82 65 82 C65 81.01 65 80.02 65 79 C66.65 79 68.3 79 70 79 C70 78.34 70 77.68 70 77 C71.65 77 73.3 77 75 77 C75 76.34 75 75.68 75 75 C77.97 75 80.94 75 84 75 C84.495 73.515 84.495 73.515 85 72 C96.55 72 108.1 72 120 72 C120 72.99 120 73.98 120 75 C123.3 75 126.6 75 130 75 C130 75.66 130 76.32 130 77 C132.31 77 134.62 77 137 77 C137 77.66 137 78.32 137 79 C138.65 79 140.3 79 142 79 C142 79.99 142 80.98 142 82 C143.65 82 145.3 82 147 82 C147 82.66 147 83.32 147 84 C148.65 84.33 150.3 84.66 152 85 C152 85.66 152 86.32 152 87 C152.66 87 153.32 87 154 87 C154 87.66 154 88.32 154 89 C154.66 89 155.32 89 156 89 C156 89.66 156 90.32 156 91 C157.65 91 159.3 91 161 91 C161 91.99 161 92.98 161 94 C161.99 94 162.98 94 164 94 C164 94.66 164 95.32 164 96 C164.66 96 165.32 96 166 96 C166 97.65 166 99.3 166 101 C166.66 101 167.32 101 168 101 C168 101.66 168 102.32 168 103 C168.99 103 169.98 103 171 103 C171 103.99 171 104.98 171 106 C171.66 106 172.32 106 173 106 C173 107.65 173 109.3 173 111 C173.99 111 174.98 111 176 111 C176 111.66 176 112.32 176 113 C176.66 113 177.32 113 178 113 C178 114.65 178 116.3 178 118 C178.66 118 179.32 118 180 118 C180 119.65 180 121.3 180 123 C180.99 123 181.98 123 183 123 C183 125.31 183 127.62 183 130 C183.66 130 184.32 130 185 130 C185 132.31 185 134.62 185 137 C185.99 137 186.98 137 188 137 C188 141.62 188 146.24 188 151 C188.66 151 189.32 151 190 151 C190 160.57 190 170.14 190 180 C189.34 180 188.68 180 188 180 C188 184.62 188 189.24 188 194 C187.01 194.33 186.02 194.66 185 195 C185 197.97 185 200.94 185 204 C184.34 204 183.68 204 183 204 C183 205.65 183 207.3 183 209 C182.01 209 181.02 209 180 209 C180 211.31 180 213.62 180 216 C179.34 216 178.68 216 178 216 C178 217.65 178 219.3 178 221 C177.34 221 176.68 221 176 221 C176 221.66 176 222.32 176 223 C175.01 223 174.02 223 173 223 C173 224.65 173 226.3 173 228 C172.34 228 171.68 228 171 228 C171 228.99 171 229.98 171 231 C170.01 231 169.02 231 168 231 C168 231.66 168 232.32 168 233 C167.34 233 166.68 233 166 233 C166 233.66 166 234.32 166 235 C165.34 235 164.68 235 164 235 C164 235.99 164 236.98 164 238 C163.01 238 162.02 238 161 238 C161 238.66 161 239.32 161 240 C160.34 240 159.68 240 159 240 C159 240.99 159 241.98 159 243 C158.01 243 157.02 243 156 243 C156 243.66 156 244.32 156 245 C155.34 245 154.68 245 154 245 C154 245.66 154 246.32 154 247 C152.35 247 150.7 247 149 247 C149 247.99 149 248.98 149 250 C148.34 250 147.68 250 147 250 C147 250.66 147 251.32 147 252 C145.35 252 143.7 252 142 252 C142 252.99 142 253.98 142 255 C139.69 255 137.38 255 135 255 C135 255.66 135 256.32 135 257 C132.69 257 130.38 257 128 257 C128 257.66 128 258.32 128 259 C124.04 259 120.08 259 116 259 C115.67 259.99 115.34 260.98 115 262 C107.41 262 99.82 262 92 262 C92 261.01 92 260.02 92 259 C88.04 259 84.08 259 80 259 C80 258.34 80 257.68 80 257 C77.36 257 74.72 257 72 257 C72 256.34 72 255.68 72 255 C70.68 255 69.36 255 68 255 C68 254.01 68 253.02 68 252 C66.35 252 64.7 252 63 252 C63 251.34 63 250.68 63 250 C62.01 250 61.02 250 60 250 C60 249.01 60 248.02 60 247 C58.68 247 57.36 247 56 247 C56 246.34 56 245.68 56 245 C55.01 245 54.02 245 53 245 C53 244.34 53 243.68 53 243 C52.34 243 51.68 243 51 243 C51 242.01 51 241.02 51 240 C50.01 240 49.02 240 48 240 C48 239.34 48 238.68 48 238 C47.34 238 46.68 238 46 238 C46 244.27 46 250.54 46 257 C30.82 257 15.64 257 0 257 C0 172.19 0 87.38 0 0 Z M84 115 C84 115.99 84 116.98 84 118 C81.69 118 79.38 118 77 118 C77 118.66 77 119.32 77 120 C75.35 120 73.7 120 72 120 C72 120.99 72 121.98 72 123 C70.68 123 69.36 123 68 123 C68 123.66 68 124.32 68 125 C67.01 125 66.02 125 65 125 C65 125.66 65 126.32 65 127 C64.34 127 63.68 127 63 127 C63 127.99 63 128.98 63 130 C62.01 130 61.02 130 60 130 C60 130.66 60 131.32 60 132 C59.34 132 58.68 132 58 132 C58 132.99 58 133.98 58 135 C57.34 135 56.68 135 56 135 C56 135.66 56 136.32 56 137 C55.01 137 54.02 137 53 137 C53 138.65 53 140.3 53 142 C52.34 142 51.68 142 51 142 C50.87625 142.639375 50.7525 143.27875 50.625 143.9375 C50.41875 144.618125 50.2125 145.29875 50 146 C49.34 146.33 48.68 146.66 48 147 C48 149.31 48 151.62 48 154 C47.34 154 46.68 154 46 154 C46 161.92 46 169.84 46 178 C46.66 178 47.32 178 48 178 C48 180.31 48 182.62 48 185 C48.99 185 49.98 185 51 185 C51 186.65 51 188.3 51 190 C51.66 190 52.32 190 53 190 C53 191.65 53 193.3 53 195 C53.99 195 54.98 195 56 195 C56 195.66 56 196.32 56 197 C56.66 197 57.32 197 58 197 C58 198.65 58 200.3 58 202 C58.66 202 59.32 202 60 202 C60 202.66 60 203.32 60 204 C60.99 204 61.98 204 63 204 C63 204.99 63 205.98 63 207 C64.65 207 66.3 207 68 207 C68 207.66 68 208.32 68 209 C68.66 209 69.32 209 70 209 C70 209.66 70 210.32 70 211 C70.9590625 211.185625 70.9590625 211.185625 71.9375 211.375 C72.618125 211.58125 73.29875 211.7875 74 212 C74.495 212.99 74.495 212.99 75 214 C76.65 214 78.3 214 80 214 C80 214.66 80 215.32 80 216 C89.24 216 98.48 216 108 216 C108 215.34 108 214.68 108 214 C109.65 214 111.3 214 113 214 C113.33 213.34 113.66 212.68 114 212 C116.0625 211.375 116.0625 211.375 118 211 C118 210.34 118 209.68 118 209 C118.66 209 119.32 209 120 209 C120 208.34 120 207.68 120 207 C121.65 207 123.3 207 125 207 C125 206.01 125 205.02 125 204 C125.99 204 126.98 204 128 204 C128 202.35 128 200.7 128 199 C128.66 199 129.32 199 130 199 C130 198.34 130 197.68 130 197 C130.66 197 131.32 197 132 197 C132.185625 196.0409375 132.185625 196.0409375 132.375 195.0625 C132.58125 194.381875 132.7875 193.70125 133 193 C133.66 192.67 134.32 192.34 135 192 C135 190.35 135 188.7 135 187 C135.66 187 136.32 187 137 187 C137 184.69 137 182.38 137 180 C137.99 180 138.98 180 140 180 C140 171.42 140 162.84 140 154 C139.01 154 138.02 154 137 154 C137 150.7 137 147.4 137 144 C136.34 144 135.68 144 135 144 C135 142.35 135 140.7 135 139 C134.01 139 133.02 139 132 139 C132 137.68 132 136.36 132 135 C131.34 135 130.68 135 130 135 C130 134.01 130 133.02 130 132 C129.34 132 128.68 132 128 132 C128 131.34 128 130.68 128 130 C127.01 130 126.02 130 125 130 C125 129.01 125 128.02 125 127 C124.34 127 123.68 127 123 127 C123 126.34 123 125.68 123 125 C122.01 125 121.02 125 120 125 C120 124.34 120 123.68 120 123 C118.68 123 117.36 123 116 123 C116 122.01 116 121.02 116 120 C114.35 120 112.7 120 111 120 C111 119.34 111 118.68 111 118 C108.69 118 106.38 118 104 118 C104 117.01 104 116.02 104 115 C97.4 115 90.8 115 84 115 Z " fill="#070707" transform="translate(1088,29)"/>
<path d="M0 0 C11.88 0 23.76 0 36 0 C36 0.99 36 1.98 36 3 C39.96 3 43.92 3 48 3 C48 3.66 48 4.32 48 5 C50.31 5 52.62 5 55 5 C55 5.66 55 6.32 55 7 C57.31 7 59.62 7 62 7 C62.33 7.99 62.66 8.98 63 10 C64.32 10 65.64 10 67 10 C67 10.66 67 11.32 67 12 C67.99 12 68.98 12 70 12 C70 12.99 70 13.98 70 15 C71.65 15 73.3 15 75 15 C75 15.66 75 16.32 75 17 C75.66 17 76.32 17 77 17 C77 17.66 77 18.32 77 19 C78.65 19.33 80.3 19.66 82 20 C82 20.66 82 21.32 82 22 C82.66 22 83.32 22 84 22 C84 22.66 84 23.32 84 24 C84.99 24.33 85.98 24.66 87 25 C87 25.66 87 26.32 87 27 C87.66 27 88.32 27 89 27 C89 27.66 89 28.32 89 29 C89.66 29 90.32 29 91 29 C91 29.66 91 30.32 91 31 C91.99 31.33 92.98 31.66 94 32 C94 33.32 94 34.64 94 36 C94.66 36 95.32 36 96 36 C96 36.99 96 37.98 96 39 C96.99 39 97.98 39 99 39 C99 40.32 99 41.64 99 43 C99.66 43 100.32 43 101 43 C101 44.65 101 46.3 101 48 C101.66 48 102.32 48 103 48 C103 49.65 103 51.3 103 53 C103.99 53 104.98 53 106 53 C106 55.31 106 57.62 106 60 C106.66 60 107.32 60 108 60 C108 63.3 108 66.6 108 70 C108.99 70 109.98 70 111 70 C111 82.54 111 95.08 111 108 C65.79 108 20.58 108 -26 108 C-26 111.3 -26 114.6 -26 118 C-25.34 118 -24.68 118 -24 118 C-24 120.31 -24 122.62 -24 125 C-23.01 125 -22.02 125 -21 125 C-21 125.66 -21 126.32 -21 127 C-20.34 127 -19.68 127 -19 127 C-19 128.65 -19 130.3 -19 132 C-18.34 132 -17.68 132 -17 132 C-17 132.99 -17 133.98 -17 135 C-16.01 135 -15.02 135 -14 135 C-14 135.66 -14 136.32 -14 137 C-13.34 137 -12.68 137 -12 137 C-12 137.66 -12 138.32 -12 139 C-11.01 139.33 -10.02 139.66 -9 140 C-9 140.66 -9 141.32 -9 142 C-7.68 142 -6.36 142 -5 142 C-5 142.66 -5 143.32 -5 144 C-3.35 144 -1.7 144 0 144 C0 144.99 0 145.98 0 147 C2.31 147 4.62 147 7 147 C7 147.66 7 148.32 7 149 C14.26 149 21.52 149 29 149 C29 148.34 29 147.68 29 147 C31.31 147 33.62 147 36 147 C36 146.01 36 145.02 36 144 C37.65 144 39.3 144 41 144 C41 143.34 41 142.68 41 142 C42.65 142 44.3 142 46 142 C46 141.01 46 140.02 46 139 C46.66 139 47.32 139 48 139 C48 138.34 48 137.68 48 137 C48.99 137 49.98 137 51 137 C51 136.34 51 135.68 51 135 C51.66 135 52.32 135 53 135 C53 134.01 53 133.02 53 132 C53.66 132 54.32 132 55 132 C55 131.34 55 130.68 55 130 C55.99 130 56.98 130 58 130 C58 128.35 58 126.7 58 125 C58.66 125 59.32 125 60 125 C60 124.34 60 123.68 60 123 C76.83 123 93.66 123 111 123 C111 124.32 111 125.64 111 127 C110.01 127 109.02 127 108 127 C108 129.64 108 132.28 108 135 C107.34 135 106.68 135 106 135 C106 137.31 106 139.62 106 142 C105.01 142 104.02 142 103 142 C103 143.65 103 145.3 103 147 C102.34 147 101.68 147 101 147 C101 148.32 101 149.64 101 151 C100.34 151 99.68 151 99 151 C99 151.99 99 152.98 99 154 C98.01 154 97.02 154 96 154 C96 154.66 96 155.32 96 156 C95.34 156 94.68 156 94 156 C94 157.65 94 159.3 94 161 C93.01 161 92.02 161 91 161 C91 161.66 91 162.32 91 163 C90.34 163 89.68 163 89 163 C89 163.99 89 164.98 89 166 C88.34 166 87.68 166 87 166 C87 166.66 87 167.32 87 168 C85.35 168 83.7 168 82 168 C82 168.99 82 169.98 82 171 C81.01 171 80.02 171 79 171 C79 171.66 79 172.32 79 173 C78.34 173 77.68 173 77 173 C77 173.66 77 174.32 77 175 C75.35 175 73.7 175 72 175 C72 175.99 72 176.98 72 178 C70.35 178 68.7 178 67 178 C67 178.66 67 179.32 67 180 C65.68 180 64.36 180 63 180 C62.67 180.99 62.34 181.98 62 183 C60.68 183 59.36 183 58 183 C58 183.66 58 184.32 58 185 C54.7 185 51.4 185 48 185 C48 185.66 48 186.32 48 187 C45.03 187 42.06 187 39 187 C38.67 187.99 38.34 188.98 38 190 C24.8 190 11.6 190 -2 190 C-2 189.01 -2 188.02 -2 187 C-5.3 187 -8.6 187 -12 187 C-12 186.34 -12 185.68 -12 185 C-14.31 185 -16.62 185 -19 185 C-19 184.34 -19 183.68 -19 183 C-21.31 183 -23.62 183 -26 183 C-26 182.01 -26 181.02 -26 180 C-27.65 180 -29.3 180 -31 180 C-31 179.34 -31 178.68 -31 178 C-32.65 178 -34.3 178 -36 178 C-36 177.01 -36 176.02 -36 175 C-36.66 175 -37.32 175 -38 175 C-38 174.34 -38 173.68 -38 173 C-38.99 173 -39.98 173 -41 173 C-41 172.34 -41 171.68 -41 171 C-42.32 171 -43.64 171 -45 171 C-45 170.01 -45 169.02 -45 168 C-45.99 168 -46.98 168 -48 168 C-48 167.34 -48 166.68 -48 166 C-48.66 166 -49.32 166 -50 166 C-50 165.01 -50 164.02 -50 163 C-50.99 163 -51.98 163 -53 163 C-53 162.34 -53 161.68 -53 161 C-53.66 161 -54.32 161 -55 161 C-55 160.34 -55 159.68 -55 159 C-55.66 159 -56.32 159 -57 159 C-57 157.35 -57 155.7 -57 154 C-57.99 154 -58.98 154 -60 154 C-60 153.01 -60 152.02 -60 151 C-60.66 151 -61.32 151 -62 151 C-62 149.68 -62 148.36 -62 147 C-62.99 146.67 -63.98 146.34 -65 146 C-65 145.34 -65 144.68 -65 144 C-65.66 144 -66.32 144 -67 144 C-67 142.35 -67 140.7 -67 139 C-67.66 139 -68.32 139 -69 139 C-69 136.69 -69 134.38 -69 132 C-69.99 132 -70.98 132 -72 132 C-72 129.69 -72 127.38 -72 125 C-72.66 125 -73.32 125 -74 125 C-74 121.7 -74 118.4 -74 115 C-74.99 115 -75.98 115 -77 115 C-77 102.46 -77 89.92 -77 77 C-76.01 77 -75.02 77 -74 77 C-74 73.04 -74 69.08 -74 65 C-73.34 65 -72.68 65 -72 65 C-72 62.69 -72 60.38 -72 58 C-71.01 58 -70.02 58 -69 58 C-69 56.35 -69 54.7 -69 53 C-68.34 53 -67.68 53 -67 53 C-67 51.35 -67 49.7 -67 48 C-66.34 48 -65.68 48 -65 48 C-64.67 46.35 -64.34 44.7 -64 43 C-63.34 43 -62.68 43 -62 43 C-62 42.34 -62 41.68 -62 41 C-61.34 41 -60.68 41 -60 41 C-60 39.35 -60 37.7 -60 36 C-59.01 36 -58.02 36 -57 36 C-57 35.34 -57 34.68 -57 34 C-56.34 34 -55.68 34 -55 34 C-55 33.01 -55 32.02 -55 31 C-54.34 31 -53.68 31 -53 31 C-53 30.34 -53 29.68 -53 29 C-52.01 29 -51.02 29 -50 29 C-50 28.34 -50 27.68 -50 27 C-49.34 27 -48.68 27 -48 27 C-48 26.01 -48 25.02 -48 24 C-47.01 24 -46.02 24 -45 24 C-45 23.34 -45 22.68 -45 22 C-44.34 22 -43.68 22 -43 22 C-43 21.01 -43 20.02 -43 19 C-42.34 19 -41.68 19 -41 19 C-41 18.34 -41 17.68 -41 17 C-40.01 17 -39.02 17 -38 17 C-38 16.34 -38 15.68 -38 15 C-36.35 15 -34.7 15 -33 15 C-33 14.01 -33 13.02 -33 12 C-31.68 12 -30.36 12 -29 12 C-29 11.34 -29 10.68 -29 10 C-27.35 10 -25.7 10 -24 10 C-24 9.01 -24 8.02 -24 7 C-22.35 7 -20.7 7 -19 7 C-19 6.34 -19 5.68 -19 5 C-16.69 5 -14.38 5 -12 5 C-12 4.34 -12 3.68 -12 3 C-8.04 3 -4.08 3 0 3 C0 2.01 0 1.02 0 0 Z M17 39 C17 39.66 17 40.32 17 41 C13.04 41 9.08 41 5 41 C5 41.66 5 42.32 5 43 C2.69 43 0.38 43 -2 43 C-2 43.99 -2 44.98 -2 46 C-2.99 46 -3.98 46 -5 46 C-5 46.66 -5 47.32 -5 48 C-6.32 48 -7.64 48 -9 48 C-10.79252059 49.29209912 -10.79252059 49.29209912 -12 51 C-12 51.66 -12 52.32 -12 53 C-12.66 53 -13.32 53 -14 53 C-14 53.66 -14 54.32 -14 55 C-14.99 55 -15.98 55 -17 55 C-17 55.99 -17 56.98 -17 58 C-17.66 58 -18.32 58 -19 58 C-19 58.66 -19 59.32 -19 60 C-19.66 60 -20.32 60 -21 60 C-21 61.65 -21 63.3 -21 65 C-21.99 65 -22.98 65 -24 65 C-24 67.31 -24 69.62 -24 72 C-24.66 72 -25.32 72 -26 72 C-26 72.99 -26 73.98 -26 75 C2.38 75 30.76 75 60 75 C60 72.36 60 69.72 60 67 C59.34 67 58.68 67 58 67 C58 65.68 58 64.36 58 63 C57.34 62.67 56.68 62.34 56 62 C55.375 59.9375 55.375 59.9375 55 58 C54.34 58 53.68 58 53 58 C53 57.01 53 56.02 53 55 C52.34 55 51.68 55 51 55 C51 54.34 51 53.68 51 53 C50.01 53 49.02 53 48 53 C48 52.34 48 51.68 48 51 C47.34 51 46.68 51 46 51 C46 50.01 46 49.02 46 48 C45.01 48 44.02 48 43 48 C43 47.34 43 46.68 43 46 C41.68 46 40.36 46 39 46 C39 45.01 39 44.02 39 43 C37.35 43 35.7 43 34 43 C34 42.34 34 41.68 34 41 C29.05 41 24.1 41 19 41 C19 40.34 19 39.68 19 39 C18.34 39 17.68 39 17 39 Z " fill="#070707" transform="translate(961,101)"/>
<path d="M0 0 C12.54 0 25.08 0 38 0 C38 0.99 38 1.98 38 3 C41.96 3 45.92 3 50 3 C50 3.66 50 4.32 50 5 C52.64 5 55.28 5 58 5 C58 5.66 58 6.32 58 7 C59.32 7 60.64 7 62 7 C62 7.99 62 8.98 62 10 C63.65 10 65.3 10 67 10 C67 10.66 67 11.32 67 12 C68.65 12 70.3 12 72 12 C72 12.99 72 13.98 72 15 C73.65 15 75.3 15 77 15 C77 15.66 77 16.32 77 17 C77.66 17 78.32 17 79 17 C79 17.66 79 18.32 79 19 C80.65 19 82.3 19 84 19 C84 19.99 84 20.98 84 22 C84.66 22 85.32 22 86 22 C86 22.66 86 23.32 86 24 C86.99 24 87.98 24 89 24 C89 24.99 89 25.98 89 27 C89.66 27 90.32 27 91 27 C91 27.66 91 28.32 91 29 C91.99 29 92.98 29 94 29 C94 29.66 94 30.32 94 31 C94.66 31 95.32 31 96 31 C96 32.65 96 34.3 96 36 C96.66 36 97.32 36 98 36 C98 36.99 98 37.98 98 39 C98.99 39 99.98 39 101 39 C101 40.32 101 41.64 101 43 C101.66 43 102.32 43 103 43 C103 43.99 103 44.98 103 46 C103.99 46 104.98 46 106 46 C106 47.65 106 49.3 106 51 C106.66 51 107.32 51 108 51 C108 53.31 108 55.62 108 58 C108.66 58 109.32 58 110 58 C110 60.31 110 62.62 110 65 C110.99 65 111.98 65 113 65 C113 68.96 113 72.92 113 77 C113.66 77 114.32 77 115 77 C115 88.88 115 100.76 115 113 C114.34 113 113.68 113 113 113 C113 116.96 113 120.92 113 125 C112.01 125 111.02 125 110 125 C110 127.31 110 129.62 110 132 C109.34 132 108.68 132 108 132 C108 133.65 108 135.3 108 137 C107.34 137 106.68 137 106 137 C106 138.65 106 140.3 106 142 C105.01 142 104.02 142 103 142 C103 143.65 103 145.3 103 147 C102.34 147 101.68 147 101 147 C101 148.32 101 149.64 101 151 C100.01 151 99.02 151 98 151 C98 151.99 98 152.98 98 154 C97.34 154 96.68 154 96 154 C96 154.66 96 155.32 96 156 C95.34 156 94.68 156 94 156 C94 157.65 94 159.3 94 161 C93.01 161 92.02 161 91 161 C91 161.66 91 162.32 91 163 C90.34 163 89.68 163 89 163 C89 163.99 89 164.98 89 166 C88.01 166 87.02 166 86 166 C86 166.66 86 167.32 86 168 C84.68 168 83.36 168 82 168 C81.67 168.99 81.34 169.98 81 171 C80.34 171 79.68 171 79 171 C79 171.66 79 172.32 79 173 C78.34 173 77.68 173 77 173 C77 173.66 77 174.32 77 175 C75.35 175 73.7 175 72 175 C72 175.99 72 176.98 72 178 C70.35 178 68.7 178 67 178 C67 178.66 67 179.32 67 180 C65.35 180 63.7 180 62 180 C62 180.99 62 181.98 62 183 C60.68 183 59.36 183 58 183 C58 183.66 58 184.32 58 185 C54.7 185 51.4 185 48 185 C48 185.66 48 186.32 48 187 C44.04 187 40.08 187 36 187 C36 187.99 36 188.98 36 190 C24.78 190 13.56 190 2 190 C2 189.01 2 188.02 2 187 C-1.96 187 -5.92 187 -10 187 C-10 186.34 -10 185.68 -10 185 C-12.31 185 -14.62 185 -17 185 C-17 184.34 -17 183.68 -17 183 C-19.31 183 -21.62 183 -24 183 C-24 182.01 -24 181.02 -24 180 C-25.65 180 -27.3 180 -29 180 C-29 179.34 -29 178.68 -29 178 C-30.65 177.67 -32.3 177.34 -34 177 C-34 176.34 -34 175.68 -34 175 C-34.66 175 -35.32 175 -36 175 C-36 174.34 -36 173.68 -36 173 C-37.65 173 -39.3 173 -41 173 C-41 172.34 -41 171.68 -41 171 C-41.66 171 -42.32 171 -43 171 C-43 170.01 -43 169.02 -43 168 C-43.99 168 -44.98 168 -46 168 C-46 167.34 -46 166.68 -46 166 C-46.66 166 -47.32 166 -48 166 C-48 165.01 -48 164.02 -48 163 C-48.66 163 -49.32 163 -50 163 C-50 162.34 -50 161.68 -50 161 C-50.99 161 -51.98 161 -53 161 C-53 160.34 -53 159.68 -53 159 C-53.66 159 -54.32 159 -55 159 C-55 158.01 -55 157.02 -55 156 C-55.99 156 -56.98 156 -58 156 C-58 155.34 -58 154.68 -58 154 C-58.66 154 -59.32 154 -60 154 C-60 152.35 -60 150.7 -60 149 C-60.66 149 -61.32 149 -62 149 C-62 148.34 -62 147.68 -62 147 C-62.99 146.67 -63.98 146.34 -65 146 C-65 144.68 -65 143.36 -65 142 C-65.66 142 -66.32 142 -67 142 C-67 140.35 -67 138.7 -67 137 C-67.99 137 -68.98 137 -70 137 C-70 134.69 -70 132.38 -70 130 C-70.66 130 -71.32 130 -72 130 C-72 127.69 -72 125.38 -72 123 C-72.66 123 -73.32 123 -74 123 C-74 117.39 -74 111.78 -74 106 C-74.99 106 -75.98 106 -77 106 C-77 98.74 -77 91.48 -77 84 C-76.01 84 -75.02 84 -74 84 C-74 78.39 -74 72.78 -74 67 C-73.34 67 -72.68 67 -72 67 C-72 64.69 -72 62.38 -72 60 C-71.34 60 -70.68 60 -70 60 C-70 57.69 -70 55.38 -70 53 C-69.01 53 -68.02 53 -67 53 C-67 51.35 -67 49.7 -67 48 C-66.34 48 -65.68 48 -65 48 C-64.67 46.35 -64.34 44.7 -64 43 C-63.34 43 -62.68 43 -62 43 C-62 42.34 -62 41.68 -62 41 C-61.34 41 -60.68 41 -60 41 C-60 39.35 -60 37.7 -60 36 C-59.34 36 -58.68 36 -58 36 C-58 35.34 -58 34.68 -58 34 C-57.01 34 -56.02 34 -55 34 C-55 33.01 -55 32.02 -55 31 C-54.34 31 -53.68 31 -53 31 C-53 30.34 -53 29.68 -53 29 C-52.01 29 -51.02 29 -50 29 C-50 28.34 -50 27.68 -50 27 C-49.34 27 -48.68 27 -48 27 C-48 26.01 -48 25.02 -48 24 C-47.34 24 -46.68 24 -46 24 C-46 23.34 -46 22.68 -46 22 C-45.01 22 -44.02 22 -43 22 C-43 21.01 -43 20.02 -43 19 C-42.34 19 -41.68 19 -41 19 C-41 18.34 -41 17.68 -41 17 C-39.35 17 -37.7 17 -36 17 C-36 16.34 -36 15.68 -36 15 C-35.34 15 -34.68 15 -34 15 C-33.67 14.01 -33.34 13.02 -33 12 C-31.68 12 -30.36 12 -29 12 C-29 11.34 -29 10.68 -29 10 C-27.35 10 -25.7 10 -24 10 C-24 9.01 -24 8.02 -24 7 C-22.35 7 -20.7 7 -19 7 C-19 6.34 -19 5.68 -19 5 C-16.69 5 -14.38 5 -12 5 C-12 4.34 -12 3.68 -12 3 C-8.04 3 -4.08 3 0 3 C0 2.01 0 1.02 0 0 Z M14 43 C14 43.99 14 44.98 14 46 C11.03 46 8.06 46 5 46 C5 46.66 5 47.32 5 48 C3.35 48 1.7 48 0 48 C0 48.99 0 49.98 0 51 C-1.65 51 -3.3 51 -5 51 C-5 51.66 -5 52.32 -5 53 C-6.65 53 -8.3 53 -10 53 C-10 53.66 -10 54.32 -10 55 C-10.66 55 -11.32 55 -12 55 C-12 55.99 -12 56.98 -12 58 C-12.66 58 -13.32 58 -14 58 C-14 58.66 -14 59.32 -14 60 C-14.99 60 -15.98 60 -17 60 C-17 61.65 -17 63.3 -17 65 C-17.66 65 -18.32 65 -19 65 C-19 66.65 -19 68.3 -19 70 C-19.99 70 -20.98 70 -22 70 C-22 71.65 -22 73.3 -22 75 C-22.66 75 -23.32 75 -24 75 C-24 77.31 -24 79.62 -24 82 C-24.66 82 -25.32 82 -26 82 C-26 90.58 -26 99.16 -26 108 C-25.34 108 -24.68 108 -24 108 C-24 110.31 -24 112.62 -24 115 C-23.34 115 -22.68 115 -22 115 C-22 116.65 -22 118.3 -22 120 C-21.01 120 -20.02 120 -19 120 C-19 121.65 -19 123.3 -19 125 C-18.34 125 -17.68 125 -17 125 C-17 125.66 -17 126.32 -17 127 C-16.34 127.33 -15.68 127.66 -15 128 C-14.375 130.0625 -14.375 130.0625 -14 132 C-13.34 132 -12.68 132 -12 132 C-12 132.99 -12 133.98 -12 135 C-10.35 135 -8.7 135 -7 135 C-7 135.66 -7 136.32 -7 137 C-6.34 137 -5.68 137 -5 137 C-5 137.66 -5 138.32 -5 139 C-3.35 139 -1.7 139 0 139 C0 139.99 0 140.98 0 142 C1.65 142 3.3 142 5 142 C5 142.66 5 143.32 5 144 C9.62 144 14.24 144 19 144 C19 144.99 19 145.98 19 147 C19.99 147 20.98 147 22 147 C22 146.01 22 145.02 22 144 C25.96 144 29.92 144 34 144 C34 143.34 34 142.68 34 142 C36.31 142 38.62 142 41 142 C41 141.01 41 140.02 41 139 C41.66 139 42.32 139 43 139 C43 138.34 43 137.68 43 137 C44.65 137 46.3 137 48 137 C48 136.34 48 135.68 48 135 C48.66 135 49.32 135 50 135 C50 134.01 50 133.02 50 132 C50.99 132 51.98 132 53 132 C53 131.34 53 130.68 53 130 C53.66 130 54.32 130 55 130 C55 129.01 55 128.02 55 127 C55.99 127 56.98 127 58 127 C58 125.68 58 124.36 58 123 C58.66 123 59.32 123 60 123 C60 121.35 60 119.7 60 118 C60.66 118 61.32 118 62 118 C62 115.69 62 113.38 62 111 C62.99 111 63.98 111 65 111 C65 100.44 65 89.88 65 79 C64.01 79 63.02 79 62 79 C62 76.69 62 74.38 62 72 C61.34 72 60.68 72 60 72 C60 70.35 60 68.7 60 67 C59.34 67 58.68 67 58 67 C58 65.68 58 64.36 58 63 C57.01 63 56.02 63 55 63 C55 62.01 55 61.02 55 60 C54.34 60 53.68 60 53 60 C53 59.34 53 58.68 53 58 C51.66666667 56.33333333 51.66666667 56.33333333 50 55 C49.34 55 48.68 55 48 55 C48 54.34 48 53.68 48 53 C47.34 53 46.68 53 46 53 C46 52.34 46 51.68 46 51 C44.35 51 42.7 51 41 51 C41 50.01 41 49.02 41 48 C38.69 48 36.38 48 34 48 C34 47.34 34 46.68 34 46 C30.7 46 27.4 46 24 46 C24 45.01 24 44.02 24 43 C20.7 43 17.4 43 14 43 Z " fill="#070707" transform="translate(1542,101)"/>
<path d="M0 0 C2.31 0 4.62 0 7 0 C7 14.19 7 28.38 7 43 C5.68 43 4.36 43 3 43 C2.67 43.99 2.34 44.98 2 46 C-0.97 46 -3.94 46 -7 46 C-7 46.66 -7 47.32 -7 48 C-8.65 48 -10.3 48 -12 48 C-12 48.99 -12 49.98 -12 51 C-12.66 51 -13.32 51 -14 51 C-14 51.66 -14 52.32 -14 53 C-14.99 53 -15.98 53 -17 53 C-17 53.66 -17 54.32 -17 55 C-17.66 55 -18.32 55 -19 55 C-19 55.99 -19 56.98 -19 58 C-19.66 58 -20.32 58 -21 58 C-21.33 59.65 -21.66 61.3 -22 63 C-22.66 63 -23.32 63 -24 63 C-24 64.32 -24 65.64 -24 67 C-24.66 67 -25.32 67 -26 67 C-26 70.3 -26 73.6 -26 77 C-15.11 77 -4.22 77 7 77 C7 90.53 7 104.06 7 118 C-3.89 118 -14.78 118 -26 118 C-26 163.87 -26 209.74 -26 257 C-41.84 257 -57.68 257 -74 257 C-74 211.13 -74 165.26 -74 118 C-83.57 118 -93.14 118 -103 118 C-103 104.47 -103 90.94 -103 77 C-93.43 77 -83.86 77 -74 77 C-74 71.39 -74 65.78 -74 60 C-73.34 60 -72.68 60 -72 60 C-72 57.03 -72 54.06 -72 51 C-71.01 51 -70.02 51 -69 51 C-69 48.36 -69 45.72 -69 43 C-68.34 43 -67.68 43 -67 43 C-67 41.68 -67 40.36 -67 39 C-66.34 39 -65.68 39 -65 39 C-65 38.01 -65 37.02 -65 36 C-64.01 36 -63.02 36 -62 36 C-62 34.35 -62 32.7 -62 31 C-61.34 31 -60.68 31 -60 31 C-60 30.34 -60 29.68 -60 29 C-59.01 29 -58.02 29 -57 29 C-57 28.34 -57 27.68 -57 27 C-56.34 27 -55.68 27 -55 27 C-55 26.01 -55 25.02 -55 24 C-54.34 24 -53.68 24 -53 24 C-53 23.34 -53 22.68 -53 22 C-52.01 22 -51.02 22 -50 22 C-50 21.01 -50 20.02 -50 19 C-49.34 19 -48.68 19 -48 19 C-48 18.34 -48 17.68 -48 17 C-47.01 17 -46.02 17 -45 17 C-45 16.34 -45 15.68 -45 15 C-43.68 15 -42.36 15 -41 15 C-41 14.01 -41 13.02 -41 12 C-39.35 12 -37.7 12 -36 12 C-36 11.34 -36 10.68 -36 10 C-34.35 10 -32.7 10 -31 10 C-31 9.01 -31 8.02 -31 7 C-29.35 7 -27.7 7 -26 7 C-26 6.34 -26 5.68 -26 5 C-23.03 5 -20.06 5 -17 5 C-17 4.34 -17 3.68 -17 3 C-11.39 3 -5.78 3 0 3 C0 2.01 0 1.02 0 0 Z " fill="#070707" transform="translate(1381,29)"/>
<path d="M0 0 C15.84 0 31.68 0 48 0 C48 84.81 48 169.62 48 257 C32.16 257 16.32 257 0 257 C0 172.19 0 87.38 0 0 Z " fill="#070707" transform="translate(1403,29)"/>
</svg>
